<?xml version="1.0" encoding="utf-8"?>
<!-- Generator: Adobe Illustrator 23.0.2, SVG Export Plug-In . SVG Version: 6.00 Build 0)  -->
<svg version="1.1" id="Capa_1" xmlns="http://www.w3.org/2000/svg" xmlns:xlink="http://www.w3.org/1999/xlink" x="0px" y="0px"
	 viewBox="0 0 841.9 595.3" style="enable-background:new 0 0 841.9 595.3;" xml:space="preserve">
<style type="text/css">
	.st0{display:none;stroke:#FFFFFF;stroke-miterlimit:10;}
	.st1{display:none;}
	.st2{display:inline;}
	.st3{clip-path:url(#SVGID_2_);fill:none;stroke:#9D9D9C;stroke-width:1.1073;stroke-miterlimit:10;}
	.st4{clip-path:url(#SVGID_2_);fill:none;stroke:#9D9D9C;stroke-width:1.6609;stroke-miterlimit:10;}
	.st5{clip-path:url(#SVGID_2_);}
	.st6{clip-path:url(#SVGID_4_);fill:#706F6F;}
	.st7{clip-path:url(#SVGID_4_);fill:#D11962;}
	.st8{fill:#36A9E1;}
	.st9{display:none;fill:#36A9E1;}
</style>
<rect x="-58.4" y="33.9" class="st0" width="844" height="596"/>
<g class="st1">
	<g class="st2">
		<defs>
			<rect id="SVGID_1_" x="-1282" y="-319.8" width="2834.6" height="2931.1"/>
		</defs>
		<clipPath id="SVGID_2_">
			<use xlink:href="#SVGID_1_"  style="overflow:visible;"/>
		</clipPath>
		<rect x="-442.5" y="40.2" class="st3" width="523.7" height="523.7"/>
		<line class="st3" x1="-442.5" y1="563.9" x2="81.3" y2="563.9"/>
		<line class="st3" x1="-442.5" y1="537.7" x2="81.3" y2="537.7"/>
		<line class="st3" x1="-442.5" y1="511.5" x2="81.3" y2="511.5"/>
		<line class="st3" x1="-442.5" y1="485.3" x2="81.3" y2="485.3"/>
		<line class="st3" x1="-442.5" y1="459.2" x2="81.3" y2="459.2"/>
		<line class="st3" x1="-442.5" y1="433" x2="81.3" y2="433"/>
		<line class="st3" x1="-442.5" y1="406.8" x2="81.3" y2="406.8"/>
		<line class="st3" x1="-442.5" y1="380.6" x2="81.3" y2="380.6"/>
		<line class="st3" x1="-442.5" y1="354.4" x2="81.3" y2="354.4"/>
		<line class="st3" x1="-442.5" y1="328.2" x2="81.3" y2="328.2"/>
		<line class="st3" x1="-442.5" y1="302" x2="81.3" y2="302"/>
		<line class="st3" x1="-442.5" y1="275.9" x2="81.3" y2="275.9"/>
		<line class="st3" x1="-442.5" y1="249.7" x2="81.3" y2="249.7"/>
		<line class="st3" x1="-442.5" y1="223.5" x2="81.3" y2="223.5"/>
		<line class="st3" x1="-442.5" y1="197.3" x2="81.3" y2="197.3"/>
		<line class="st3" x1="-442.5" y1="171.1" x2="81.3" y2="171.1"/>
		<line class="st3" x1="-442.5" y1="144.9" x2="81.3" y2="144.9"/>
		<line class="st3" x1="-442.5" y1="118.7" x2="81.3" y2="118.7"/>
		<line class="st3" x1="-442.5" y1="92.6" x2="81.3" y2="92.6"/>
		<line class="st3" x1="-442.5" y1="66.4" x2="81.3" y2="66.4"/>
		<line class="st3" x1="81.3" y1="40.2" x2="81.3" y2="563.9"/>
		<line class="st3" x1="55.1" y1="40.2" x2="55.1" y2="563.9"/>
		<line class="st3" x1="28.9" y1="40.2" x2="28.9" y2="563.9"/>
		<line class="st3" x1="2.7" y1="40.2" x2="2.7" y2="563.9"/>
		<line class="st3" x1="-23.5" y1="40.2" x2="-23.5" y2="563.9"/>
		<line class="st3" x1="-49.7" y1="40.2" x2="-49.7" y2="563.9"/>
		<line class="st3" x1="-75.9" y1="40.2" x2="-75.9" y2="563.9"/>
		<line class="st3" x1="-102" y1="40.2" x2="-102" y2="563.9"/>
		<line class="st3" x1="-128.2" y1="40.2" x2="-128.2" y2="563.9"/>
		<line class="st3" x1="-154.4" y1="40.2" x2="-154.4" y2="563.9"/>
		<line class="st3" x1="-180.6" y1="40.2" x2="-180.6" y2="563.9"/>
		<line class="st3" x1="-206.8" y1="40.2" x2="-206.8" y2="563.9"/>
		<line class="st3" x1="-233" y1="40.2" x2="-233" y2="563.9"/>
		<line class="st3" x1="-259.2" y1="40.2" x2="-259.2" y2="563.9"/>
		<line class="st3" x1="-285.3" y1="40.2" x2="-285.3" y2="563.9"/>
		<line class="st3" x1="-311.5" y1="40.2" x2="-311.5" y2="563.9"/>
		<line class="st3" x1="-337.7" y1="40.2" x2="-337.7" y2="563.9"/>
		<line class="st3" x1="-363.9" y1="40.2" x2="-363.9" y2="563.9"/>
		<line class="st3" x1="-390.1" y1="40.2" x2="-390.1" y2="563.9"/>
		<line class="st3" x1="-416.3" y1="40.2" x2="-416.3" y2="563.9"/>
		<rect x="189.4" y="40.2" class="st3" width="523.7" height="523.7"/>
		<line class="st3" x1="189.4" y1="563.9" x2="713.2" y2="563.9"/>
		<line class="st3" x1="189.4" y1="537.7" x2="713.2" y2="537.7"/>
		<line class="st3" x1="189.4" y1="511.5" x2="713.2" y2="511.5"/>
		<line class="st3" x1="189.4" y1="485.3" x2="713.2" y2="485.3"/>
		<line class="st3" x1="189.4" y1="459.2" x2="713.2" y2="459.2"/>
		<line class="st3" x1="189.4" y1="433" x2="713.2" y2="433"/>
		<line class="st3" x1="189.4" y1="406.8" x2="713.2" y2="406.8"/>
		<line class="st3" x1="189.4" y1="380.6" x2="713.2" y2="380.6"/>
		<line class="st3" x1="189.4" y1="354.4" x2="713.2" y2="354.4"/>
		<line class="st3" x1="189.4" y1="328.2" x2="713.2" y2="328.2"/>
		<line class="st3" x1="189.4" y1="302" x2="713.2" y2="302"/>
		<line class="st3" x1="189.4" y1="275.9" x2="713.2" y2="275.9"/>
		<line class="st3" x1="189.4" y1="249.7" x2="713.2" y2="249.7"/>
		<line class="st3" x1="189.4" y1="223.5" x2="713.2" y2="223.5"/>
		<line class="st3" x1="189.4" y1="197.3" x2="713.2" y2="197.3"/>
		<line class="st3" x1="189.4" y1="171.1" x2="713.2" y2="171.1"/>
		<line class="st3" x1="189.4" y1="144.9" x2="713.2" y2="144.9"/>
		<line class="st3" x1="189.4" y1="118.7" x2="713.2" y2="118.7"/>
		<line class="st3" x1="189.4" y1="92.6" x2="713.2" y2="92.6"/>
		<line class="st3" x1="189.4" y1="66.4" x2="713.2" y2="66.4"/>
		<line class="st3" x1="713.2" y1="40.2" x2="713.2" y2="563.9"/>
		<line class="st3" x1="687" y1="40.2" x2="687" y2="563.9"/>
		<line class="st3" x1="660.8" y1="40.2" x2="660.8" y2="563.9"/>
		<line class="st3" x1="634.6" y1="40.2" x2="634.6" y2="563.9"/>
		<line class="st3" x1="608.4" y1="40.2" x2="608.4" y2="563.9"/>
		<line class="st3" x1="582.2" y1="40.2" x2="582.2" y2="563.9"/>
		<line class="st3" x1="556" y1="40.2" x2="556" y2="563.9"/>
		<line class="st3" x1="529.9" y1="40.2" x2="529.9" y2="563.9"/>
		<line class="st3" x1="503.7" y1="40.2" x2="503.7" y2="563.9"/>
		<line class="st3" x1="477.5" y1="40.2" x2="477.5" y2="563.9"/>
		<line class="st3" x1="451.3" y1="40.2" x2="451.3" y2="563.9"/>
		<line class="st3" x1="425.1" y1="40.2" x2="425.1" y2="563.9"/>
		<line class="st3" x1="398.9" y1="40.2" x2="398.9" y2="563.9"/>
		<line class="st3" x1="372.7" y1="40.2" x2="372.7" y2="563.9"/>
		<line class="st3" x1="346.5" y1="40.2" x2="346.5" y2="563.9"/>
		<line class="st3" x1="320.4" y1="40.2" x2="320.4" y2="563.9"/>
		<line class="st3" x1="294.2" y1="40.2" x2="294.2" y2="563.9"/>
		<line class="st3" x1="268" y1="40.2" x2="268" y2="563.9"/>
		<line class="st3" x1="241.8" y1="40.2" x2="241.8" y2="563.9"/>
		<line class="st3" x1="215.6" y1="40.2" x2="215.6" y2="563.9"/>
		<rect x="189.4" y="40.2" class="st4" width="104.7" height="104.7"/>
		<rect x="294.2" y="40.2" class="st4" width="104.7" height="104.7"/>
		<rect x="398.9" y="40.2" class="st4" width="104.7" height="104.7"/>
		<rect x="503.7" y="40.2" class="st4" width="104.7" height="104.7"/>
		<rect x="608.4" y="40.2" class="st4" width="104.7" height="104.7"/>
		<rect x="189.4" y="144.9" class="st4" width="104.7" height="104.7"/>
		<rect x="294.2" y="144.9" class="st4" width="104.7" height="104.7"/>
		<rect x="398.9" y="144.9" class="st4" width="104.7" height="104.7"/>
		<rect x="503.7" y="144.9" class="st4" width="104.7" height="104.7"/>
		<rect x="608.4" y="144.9" class="st4" width="104.7" height="104.7"/>
		<rect x="189.4" y="249.7" class="st4" width="104.7" height="104.7"/>
		<rect x="294.2" y="249.7" class="st4" width="104.7" height="104.7"/>
		<rect x="398.9" y="249.7" class="st4" width="104.7" height="104.7"/>
		<rect x="503.7" y="249.7" class="st4" width="104.7" height="104.7"/>
		<rect x="608.4" y="249.7" class="st4" width="104.7" height="104.7"/>
		<rect x="189.4" y="354.4" class="st4" width="104.7" height="104.7"/>
		<rect x="294.2" y="354.4" class="st4" width="104.7" height="104.7"/>
		<rect x="398.9" y="354.4" class="st4" width="104.7" height="104.7"/>
		<rect x="503.7" y="354.4" class="st4" width="104.7" height="104.7"/>
		<rect x="608.4" y="354.4" class="st4" width="104.7" height="104.7"/>
		<rect x="189.4" y="459.2" class="st4" width="104.7" height="104.7"/>
		<rect x="294.2" y="459.2" class="st4" width="104.7" height="104.7"/>
		<rect x="398.9" y="459.2" class="st4" width="104.7" height="104.7"/>
		<rect x="503.7" y="459.2" class="st4" width="104.7" height="104.7"/>
		<rect x="608.4" y="459.2" class="st4" width="104.7" height="104.7"/>
		<rect x="-160.8" y="905.7" class="st3" width="592.2" height="592.2"/>
		<line class="st3" x1="-76.2" y1="905.7" x2="-76.2" y2="1497.9"/>
		<line class="st3" x1="-33.9" y1="905.7" x2="-33.9" y2="1497.9"/>
		<line class="st3" x1="-118.5" y1="905.7" x2="-118.5" y2="1497.9"/>
		<line class="st3" x1="8.4" y1="905.7" x2="8.4" y2="1497.9"/>
		<line class="st3" x1="50.7" y1="905.7" x2="50.7" y2="1497.9"/>
		<line class="st3" x1="93" y1="905.7" x2="93" y2="1497.9"/>
		<line class="st3" x1="135.3" y1="905.7" x2="135.3" y2="1497.9"/>
		<line class="st3" x1="177.6" y1="905.7" x2="177.6" y2="1497.9"/>
		<line class="st3" x1="219.9" y1="905.7" x2="219.9" y2="1497.9"/>
		<line class="st3" x1="262.2" y1="905.7" x2="262.2" y2="1497.9"/>
		<line class="st3" x1="304.5" y1="905.7" x2="304.5" y2="1497.9"/>
		<line class="st3" x1="346.8" y1="905.7" x2="346.8" y2="1497.9"/>
		<line class="st3" x1="389.1" y1="905.7" x2="389.1" y2="1497.9"/>
		<line class="st3" x1="431.4" y1="1413.3" x2="-160.8" y2="1413.3"/>
		<line class="st3" x1="431.4" y1="1371" x2="-160.8" y2="1371"/>
		<line class="st3" x1="431.4" y1="1455.6" x2="-160.8" y2="1455.6"/>
		<line class="st3" x1="431.4" y1="1328.7" x2="-160.8" y2="1328.7"/>
		<line class="st3" x1="431.4" y1="1286.4" x2="-160.8" y2="1286.4"/>
		<line class="st3" x1="431.4" y1="1244.1" x2="-160.8" y2="1244.1"/>
		<line class="st3" x1="431.4" y1="1201.8" x2="-160.8" y2="1201.8"/>
		<line class="st3" x1="431.4" y1="1159.5" x2="-160.8" y2="1159.5"/>
		<line class="st3" x1="431.4" y1="1117.2" x2="-160.8" y2="1117.2"/>
		<line class="st3" x1="431.4" y1="1074.9" x2="-160.8" y2="1074.9"/>
		<line class="st3" x1="431.4" y1="1032.6" x2="-160.8" y2="1032.6"/>
		<line class="st3" x1="431.4" y1="990.3" x2="-160.8" y2="990.3"/>
		<line class="st3" x1="431.4" y1="948" x2="-160.8" y2="948"/>
		<polyline class="st3" points="389.1,905.7 431.4,990.3 389.1,1074.9 431.4,1159.5 389.1,1244.1 431.4,1328.7 389.1,1413.3 
			431.4,1497.9 		"/>
		<polyline class="st3" points="346.8,905.7 389.1,990.3 346.8,1074.9 389.1,1159.5 346.8,1244.1 389.1,1328.7 346.8,1413.3 
			389.1,1497.9 		"/>
		<polyline class="st3" points="304.5,905.7 346.8,990.3 304.5,1074.9 346.8,1159.5 304.5,1244.1 346.8,1328.7 304.5,1413.3 
			346.8,1497.9 		"/>
		<polyline class="st3" points="262.2,905.7 304.5,990.3 262.2,1074.9 304.5,1159.5 262.2,1244.1 304.5,1328.7 262.2,1413.3 
			304.5,1497.9 		"/>
		<polyline class="st3" points="219.9,905.7 262.2,990.3 219.9,1074.9 262.2,1159.5 219.9,1244.1 262.2,1328.7 219.9,1413.3 
			262.2,1497.9 		"/>
		<polyline class="st3" points="177.6,905.7 219.9,990.3 177.6,1074.9 219.9,1159.5 177.6,1244.1 219.9,1328.7 177.6,1413.3 
			219.9,1497.9 		"/>
		<polyline class="st3" points="135.3,905.7 177.6,990.3 135.3,1074.9 177.6,1159.5 135.3,1244.1 177.6,1328.7 135.3,1413.3 
			177.6,1497.9 		"/>
		<polyline class="st3" points="93,905.7 135.3,990.3 93,1074.9 135.3,1159.5 93,1244.1 135.3,1328.7 93,1413.3 135.3,1497.9 		"/>
		<polyline class="st3" points="50.7,905.7 93,990.3 50.7,1074.9 93,1159.5 50.7,1244.1 93,1328.7 50.7,1413.3 93,1497.9 		"/>
		<polyline class="st3" points="8.4,905.7 50.7,990.3 8.4,1074.9 50.7,1159.5 8.4,1244.1 50.7,1328.7 8.4,1413.3 50.7,1497.9 		"/>
		<polyline class="st3" points="-33.9,905.7 8.4,990.3 -33.9,1074.9 8.4,1159.5 -33.9,1244.1 8.4,1328.7 -33.9,1413.3 8.4,1497.9 		
			"/>
		<polyline class="st3" points="-76.2,905.7 -33.9,990.3 -76.2,1074.9 -33.9,1159.5 -76.2,1244.1 -33.9,1328.7 -76.2,1413.3 
			-33.9,1497.9 		"/>
		<polyline class="st3" points="-118.5,905.7 -76.2,990.3 -118.5,1074.9 -76.2,1159.5 -118.5,1244.1 -76.2,1328.7 -118.5,1413.3 
			-76.2,1497.9 		"/>
		<polyline class="st3" points="-160.8,905.7 -118.5,990.3 -160.8,1074.9 -118.5,1159.5 -160.8,1244.1 -118.5,1328.7 -160.8,1413.3 
			-118.5,1497.9 		"/>
		<polyline class="st3" points="389.1,1497.9 431.4,1413.3 389.1,1328.7 431.4,1244.1 389.1,1159.5 431.4,1074.9 389.1,990.3 
			431.4,905.7 		"/>
		<polyline class="st3" points="346.8,1497.9 389.1,1413.3 346.8,1328.7 389.1,1244.1 346.8,1159.5 389.1,1074.9 346.8,990.3 
			389.1,905.7 		"/>
		<polyline class="st3" points="304.5,1497.9 346.8,1413.3 304.5,1328.7 346.8,1244.1 304.5,1159.5 346.8,1074.9 304.5,990.3 
			346.8,905.7 		"/>
		<polyline class="st3" points="262.2,1497.9 304.5,1413.3 262.2,1328.7 304.5,1244.1 262.2,1159.5 304.5,1074.9 262.2,990.3 
			304.5,905.7 		"/>
		<polyline class="st3" points="219.9,1497.9 262.2,1413.3 219.9,1328.7 262.2,1244.1 219.9,1159.5 262.2,1074.9 219.9,990.3 
			262.2,905.7 		"/>
		<polyline class="st3" points="177.6,1497.9 219.9,1413.3 177.6,1328.7 219.9,1244.1 177.6,1159.5 219.9,1074.9 177.6,990.3 
			219.9,905.7 		"/>
		<polyline class="st3" points="135.3,1497.9 177.6,1413.3 135.3,1328.7 177.6,1244.1 135.3,1159.5 177.6,1074.9 135.3,990.3 
			177.6,905.7 		"/>
		<polyline class="st3" points="93,1497.9 135.3,1413.3 93,1328.7 135.3,1244.1 93,1159.5 135.3,1074.9 93,990.3 135.3,905.7 		"/>
		<polyline class="st3" points="50.7,1497.9 93,1413.3 50.7,1328.7 93,1244.1 50.7,1159.5 93,1074.9 50.7,990.3 93,905.7 		"/>
		<polyline class="st3" points="8.4,1497.9 50.7,1413.3 8.4,1328.7 50.7,1244.1 8.4,1159.5 50.7,1074.9 8.4,990.3 50.7,905.7 		"/>
		<polyline class="st3" points="-33.9,1497.9 8.4,1413.3 -33.9,1328.7 8.4,1244.1 -33.9,1159.5 8.4,1074.9 -33.9,990.3 8.4,905.7 		
			"/>
		<polyline class="st3" points="-76.2,1497.9 -33.9,1413.3 -76.2,1328.7 -33.9,1244.1 -76.2,1159.5 -33.9,1074.9 -76.2,990.3 
			-33.9,905.7 		"/>
		<polyline class="st3" points="-118.5,1497.9 -76.2,1413.3 -118.5,1328.7 -76.2,1244.1 -118.5,1159.5 -76.2,1074.9 -118.5,990.3 
			-76.2,905.7 		"/>
		<polyline class="st3" points="-160.8,1497.9 -118.5,1413.3 -160.8,1328.7 -118.5,1244.1 -160.8,1159.5 -118.5,1074.9 
			-160.8,990.3 -118.5,905.7 		"/>
		<rect x="491.7" y="905.7" class="st3" width="592.2" height="592.2"/>
		<line class="st3" x1="1083.9" y1="990.3" x2="491.7" y2="990.3"/>
		<line class="st3" x1="1083.9" y1="1032.6" x2="491.7" y2="1032.6"/>
		<line class="st3" x1="1083.9" y1="948" x2="491.7" y2="948"/>
		<line class="st3" x1="1083.9" y1="1074.9" x2="491.7" y2="1074.9"/>
		<line class="st3" x1="1083.9" y1="1117.2" x2="491.7" y2="1117.2"/>
		<line class="st3" x1="1083.9" y1="1159.5" x2="491.7" y2="1159.5"/>
		<line class="st3" x1="1083.9" y1="1201.8" x2="491.7" y2="1201.8"/>
		<line class="st3" x1="1083.9" y1="1244.1" x2="491.7" y2="1244.1"/>
		<line class="st3" x1="1083.9" y1="1286.4" x2="491.7" y2="1286.4"/>
		<line class="st3" x1="1083.9" y1="1328.7" x2="491.7" y2="1328.7"/>
		<line class="st3" x1="1083.9" y1="1371" x2="491.7" y2="1371"/>
		<line class="st3" x1="1083.9" y1="1413.3" x2="491.7" y2="1413.3"/>
		<line class="st3" x1="1083.9" y1="1455.6" x2="491.7" y2="1455.6"/>
		<line class="st3" x1="576.3" y1="1497.9" x2="576.3" y2="905.7"/>
		<line class="st3" x1="618.6" y1="1497.9" x2="618.6" y2="905.7"/>
		<line class="st3" x1="534" y1="1497.9" x2="534" y2="905.7"/>
		<line class="st3" x1="660.9" y1="1497.9" x2="660.9" y2="905.7"/>
		<line class="st3" x1="703.2" y1="1497.9" x2="703.2" y2="905.7"/>
		<line class="st3" x1="745.5" y1="1497.9" x2="745.5" y2="905.7"/>
		<line class="st3" x1="787.8" y1="1497.9" x2="787.8" y2="905.7"/>
		<line class="st3" x1="830.1" y1="1497.9" x2="830.1" y2="905.7"/>
		<line class="st3" x1="872.4" y1="1497.9" x2="872.4" y2="905.7"/>
		<line class="st3" x1="914.7" y1="1497.9" x2="914.7" y2="905.7"/>
		<line class="st3" x1="957" y1="1497.9" x2="957" y2="905.7"/>
		<line class="st3" x1="999.3" y1="1497.9" x2="999.3" y2="905.7"/>
		<line class="st3" x1="1041.6" y1="1497.9" x2="1041.6" y2="905.7"/>
		<polyline class="st3" points="1083.9,1455.6 999.3,1497.9 914.7,1455.6 830.1,1497.9 745.5,1455.6 660.9,1497.9 576.3,1455.6 
			491.7,1497.9 		"/>
		<polyline class="st3" points="1083.9,1413.3 999.3,1455.6 914.7,1413.3 830.1,1455.6 745.5,1413.3 660.9,1455.6 576.3,1413.3 
			491.7,1455.6 		"/>
		<polyline class="st3" points="1083.9,1371 999.3,1413.3 914.7,1371 830.1,1413.3 745.5,1371 660.9,1413.3 576.3,1371 
			491.7,1413.3 		"/>
		<polyline class="st3" points="1083.9,1328.7 999.3,1371 914.7,1328.7 830.1,1371 745.5,1328.7 660.9,1371 576.3,1328.7 
			491.7,1371 		"/>
		<polyline class="st3" points="1083.9,1286.4 999.3,1328.7 914.7,1286.4 830.1,1328.7 745.5,1286.4 660.9,1328.7 576.3,1286.4 
			491.7,1328.7 		"/>
		<polyline class="st3" points="1083.9,1244.1 999.3,1286.4 914.7,1244.1 830.1,1286.4 745.5,1244.1 660.9,1286.4 576.3,1244.1 
			491.7,1286.4 		"/>
		<polyline class="st3" points="1083.9,1201.8 999.3,1244.1 914.7,1201.8 830.1,1244.1 745.5,1201.8 660.9,1244.1 576.3,1201.8 
			491.7,1244.1 		"/>
		<polyline class="st3" points="1083.9,1159.5 999.3,1201.8 914.7,1159.5 830.1,1201.8 745.5,1159.5 660.9,1201.8 576.3,1159.5 
			491.7,1201.8 		"/>
		<polyline class="st3" points="1083.9,1117.2 999.3,1159.5 914.7,1117.2 830.1,1159.5 745.5,1117.2 660.9,1159.5 576.3,1117.2 
			491.7,1159.5 		"/>
		<polyline class="st3" points="1083.9,1074.9 999.3,1117.2 914.7,1074.9 830.1,1117.2 745.5,1074.9 660.9,1117.2 576.3,1074.9 
			491.7,1117.2 		"/>
		<polyline class="st3" points="1083.9,1032.6 999.3,1074.9 914.7,1032.6 830.1,1074.9 745.5,1032.6 660.9,1074.9 576.3,1032.6 
			491.7,1074.9 		"/>
		<polyline class="st3" points="1083.9,990.3 999.3,1032.6 914.7,990.3 830.1,1032.6 745.5,990.3 660.9,1032.6 576.3,990.3 
			491.7,1032.6 		"/>
		<polyline class="st3" points="1083.9,948 999.3,990.3 914.7,948 830.1,990.3 745.5,948 660.9,990.3 576.3,948 491.7,990.3 		"/>
		<polyline class="st3" points="1083.9,905.7 999.3,948 914.7,905.7 830.1,948 745.5,905.7 660.9,948 576.3,905.7 491.7,948 		"/>
		<polyline class="st3" points="491.7,1455.6 576.3,1497.9 660.9,1455.6 745.5,1497.9 830.1,1455.6 914.7,1497.9 999.3,1455.6 
			1083.9,1497.9 		"/>
		<polyline class="st3" points="491.7,1413.3 576.3,1455.6 660.9,1413.3 745.5,1455.6 830.1,1413.3 914.7,1455.6 999.3,1413.3 
			1083.9,1455.6 		"/>
		<polyline class="st3" points="491.7,1371 576.3,1413.3 660.9,1371 745.5,1413.3 830.1,1371 914.7,1413.3 999.3,1371 
			1083.9,1413.3 		"/>
		<polyline class="st3" points="491.7,1328.7 576.3,1371 660.9,1328.7 745.5,1371 830.1,1328.7 914.7,1371 999.3,1328.7 
			1083.9,1371 		"/>
		<polyline class="st3" points="491.7,1286.4 576.3,1328.7 660.9,1286.4 745.5,1328.7 830.1,1286.4 914.7,1328.7 999.3,1286.4 
			1083.9,1328.7 		"/>
		<polyline class="st3" points="491.7,1244.1 576.3,1286.4 660.9,1244.1 745.5,1286.4 830.1,1244.1 914.7,1286.4 999.3,1244.1 
			1083.9,1286.4 		"/>
		<polyline class="st3" points="491.7,1201.8 576.3,1244.1 660.9,1201.8 745.5,1244.1 830.1,1201.8 914.7,1244.1 999.3,1201.8 
			1083.9,1244.1 		"/>
		<polyline class="st3" points="491.7,1159.5 576.3,1201.8 660.9,1159.5 745.5,1201.8 830.1,1159.5 914.7,1201.8 999.3,1159.5 
			1083.9,1201.8 		"/>
		<polyline class="st3" points="491.7,1117.2 576.3,1159.5 660.9,1117.2 745.5,1159.5 830.1,1117.2 914.7,1159.5 999.3,1117.2 
			1083.9,1159.5 		"/>
		<polyline class="st3" points="491.7,1074.9 576.3,1117.2 660.9,1074.9 745.5,1117.2 830.1,1074.9 914.7,1117.2 999.3,1074.9 
			1083.9,1117.2 		"/>
		<polyline class="st3" points="491.7,1032.6 576.3,1074.9 660.9,1032.6 745.5,1074.9 830.1,1032.6 914.7,1074.9 999.3,1032.6 
			1083.9,1074.9 		"/>
		<polyline class="st3" points="491.7,990.3 576.3,1032.6 660.9,990.3 745.5,1032.6 830.1,990.3 914.7,1032.6 999.3,990.3 
			1083.9,1032.6 		"/>
		<polyline class="st3" points="491.7,948 576.3,990.3 660.9,948 745.5,990.3 830.1,948 914.7,990.3 999.3,948 1083.9,990.3 		"/>
		<polyline class="st3" points="491.7,905.7 576.3,948 660.9,905.7 745.5,948 830.1,905.7 914.7,948 999.3,905.7 1083.9,948 		"/>
		<rect x="-813.2" y="905.7" class="st3" width="592.2" height="592.2"/>
		<line class="st3" x1="-813.2" y1="1413.3" x2="-221" y2="1413.3"/>
		<line class="st3" x1="-813.2" y1="1371" x2="-221" y2="1371"/>
		<line class="st3" x1="-813.2" y1="1455.6" x2="-221" y2="1455.6"/>
		<line class="st3" x1="-813.2" y1="1328.7" x2="-221" y2="1328.7"/>
		<line class="st3" x1="-813.2" y1="1286.4" x2="-221" y2="1286.4"/>
		<line class="st3" x1="-813.2" y1="1244.1" x2="-221" y2="1244.1"/>
		<line class="st3" x1="-813.2" y1="1201.8" x2="-221" y2="1201.8"/>
		<line class="st3" x1="-813.2" y1="1159.5" x2="-221" y2="1159.5"/>
		<line class="st3" x1="-813.2" y1="1117.2" x2="-221" y2="1117.2"/>
		<line class="st3" x1="-813.2" y1="1074.9" x2="-221" y2="1074.9"/>
		<line class="st3" x1="-813.2" y1="1032.6" x2="-221" y2="1032.6"/>
		<line class="st3" x1="-813.2" y1="990.3" x2="-221" y2="990.3"/>
		<line class="st3" x1="-813.2" y1="948" x2="-221" y2="948"/>
		<line class="st3" x1="-305.6" y1="905.7" x2="-305.6" y2="1497.9"/>
		<line class="st3" x1="-347.9" y1="905.7" x2="-347.9" y2="1497.9"/>
		<line class="st3" x1="-263.3" y1="905.7" x2="-263.3" y2="1497.9"/>
		<line class="st3" x1="-390.2" y1="905.7" x2="-390.2" y2="1497.9"/>
		<line class="st3" x1="-432.5" y1="905.7" x2="-432.5" y2="1497.9"/>
		<line class="st3" x1="-474.8" y1="905.7" x2="-474.8" y2="1497.9"/>
		<line class="st3" x1="-517.1" y1="905.7" x2="-517.1" y2="1497.9"/>
		<line class="st3" x1="-559.4" y1="905.7" x2="-559.4" y2="1497.9"/>
		<line class="st3" x1="-601.7" y1="905.7" x2="-601.7" y2="1497.9"/>
		<line class="st3" x1="-644" y1="905.7" x2="-644" y2="1497.9"/>
		<line class="st3" x1="-686.3" y1="905.7" x2="-686.3" y2="1497.9"/>
		<line class="st3" x1="-728.6" y1="905.7" x2="-728.6" y2="1497.9"/>
		<line class="st3" x1="-770.9" y1="905.7" x2="-770.9" y2="1497.9"/>
		<polyline class="st3" points="-813.2,990.3 -728.6,905.7 -644,990.3 -559.4,905.7 -474.8,990.3 -390.2,905.7 -305.6,990.3 
			-221,905.7 		"/>
		<polyline class="st3" points="-813.2,1074.9 -728.6,990.3 -644,1074.9 -559.4,990.3 -474.8,1074.9 -390.2,990.3 -305.6,1074.9 
			-221,990.3 		"/>
		<polyline class="st3" points="-813.2,1159.5 -728.6,1074.9 -644,1159.5 -559.4,1074.9 -474.8,1159.5 -390.2,1074.9 -305.6,1159.5 
			-221,1074.9 		"/>
		<polyline class="st3" points="-813.2,1244.1 -728.6,1159.5 -644,1244.1 -559.4,1159.5 -474.8,1244.1 -390.2,1159.5 -305.6,1244.1 
			-221,1159.5 		"/>
		<polyline class="st3" points="-813.2,1328.7 -728.6,1244.1 -644,1328.7 -559.4,1244.1 -474.8,1328.7 -390.2,1244.1 -305.6,1328.7 
			-221,1244.1 		"/>
		<polyline class="st3" points="-813.2,1413.3 -728.6,1328.7 -644,1413.3 -559.4,1328.7 -474.8,1413.3 -390.2,1328.7 -305.6,1413.3 
			-221,1328.7 		"/>
		<polyline class="st3" points="-813.2,1497.9 -728.6,1413.3 -644,1497.9 -559.4,1413.3 -474.8,1497.9 -390.2,1413.3 -305.6,1497.9 
			-221,1413.3 		"/>
		<polyline class="st3" points="-221,990.3 -305.6,905.7 -390.2,990.3 -474.8,905.7 -559.4,990.3 -644,905.7 -728.6,990.3 
			-813.2,905.7 		"/>
		<polyline class="st3" points="-221,1074.9 -305.6,990.3 -390.2,1074.9 -474.8,990.3 -559.4,1074.9 -644,990.3 -728.6,1074.9 
			-813.2,990.3 		"/>
		<polyline class="st3" points="-221,1159.5 -305.6,1074.9 -390.2,1159.5 -474.8,1074.9 -559.4,1159.5 -644,1074.9 -728.6,1159.5 
			-813.2,1074.9 		"/>
		<polyline class="st3" points="-221,1244.1 -305.6,1159.5 -390.2,1244.1 -474.8,1159.5 -559.4,1244.1 -644,1159.5 -728.6,1244.1 
			-813.2,1159.5 		"/>
		<polyline class="st3" points="-221,1328.7 -305.6,1244.1 -390.2,1328.7 -474.8,1244.1 -559.4,1328.7 -644,1244.1 -728.6,1328.7 
			-813.2,1244.1 		"/>
		<polyline class="st3" points="-221,1413.3 -305.6,1328.7 -390.2,1413.3 -474.8,1328.7 -559.4,1413.3 -644,1328.7 -728.6,1413.3 
			-813.2,1328.7 		"/>
		<polyline class="st3" points="-221,1497.9 -305.6,1413.3 -390.2,1497.9 -474.8,1413.3 -559.4,1497.9 -644,1413.3 -728.6,1497.9 
			-813.2,1413.3 		"/>
		<rect x="-160.8" y="1554.3" class="st3" width="592.2" height="592.2"/>
		<polyline class="st3" points="389.1,1554.3 431.4,1638.9 389.1,1723.5 431.4,1808.1 389.1,1892.7 431.4,1977.3 389.1,2061.9 
			431.4,2146.5 		"/>
		<polyline class="st3" points="346.8,1554.3 389.1,1638.9 346.8,1723.5 389.1,1808.1 346.8,1892.7 389.1,1977.3 346.8,2061.9 
			389.1,2146.5 		"/>
		<polyline class="st3" points="304.5,1554.3 346.8,1638.9 304.5,1723.5 346.8,1808.1 304.5,1892.7 346.8,1977.3 304.5,2061.9 
			346.8,2146.5 		"/>
		<polyline class="st3" points="262.2,1554.3 304.5,1638.9 262.2,1723.5 304.5,1808.1 262.2,1892.7 304.5,1977.3 262.2,2061.9 
			304.5,2146.5 		"/>
		<polyline class="st3" points="219.9,1554.3 262.2,1638.9 219.9,1723.5 262.2,1808.1 219.9,1892.7 262.2,1977.3 219.9,2061.9 
			262.2,2146.5 		"/>
		<polyline class="st3" points="177.6,1554.3 219.9,1638.9 177.6,1723.5 219.9,1808.1 177.6,1892.7 219.9,1977.3 177.6,2061.9 
			219.9,2146.5 		"/>
		<polyline class="st3" points="135.3,1554.3 177.6,1638.9 135.3,1723.5 177.6,1808.1 135.3,1892.7 177.6,1977.3 135.3,2061.9 
			177.6,2146.5 		"/>
		<polyline class="st3" points="93,1554.3 135.3,1638.9 93,1723.5 135.3,1808.1 93,1892.7 135.3,1977.3 93,2061.9 135.3,2146.5 		
			"/>
		<polyline class="st3" points="50.7,1554.3 93,1638.9 50.7,1723.5 93,1808.1 50.7,1892.7 93,1977.3 50.7,2061.9 93,2146.5 		"/>
		<polyline class="st3" points="8.4,1554.3 50.7,1638.9 8.4,1723.5 50.7,1808.1 8.4,1892.7 50.7,1977.3 8.4,2061.9 50.7,2146.5 		
			"/>
		<polyline class="st3" points="-33.9,1554.3 8.4,1638.9 -33.9,1723.5 8.4,1808.1 -33.9,1892.7 8.4,1977.3 -33.9,2061.9 8.4,2146.5 
					"/>
		<polyline class="st3" points="-76.2,1554.3 -33.9,1638.9 -76.2,1723.5 -33.9,1808.1 -76.2,1892.7 -33.9,1977.3 -76.2,2061.9 
			-33.9,2146.5 		"/>
		<polyline class="st3" points="-118.5,1554.3 -76.2,1638.9 -118.5,1723.5 -76.2,1808.1 -118.5,1892.7 -76.2,1977.3 -118.5,2061.9 
			-76.2,2146.5 		"/>
		<polyline class="st3" points="-160.8,1554.3 -118.5,1638.9 -160.8,1723.5 -118.5,1808.1 -160.8,1892.7 -118.5,1977.3 
			-160.8,2061.9 -118.5,2146.5 		"/>
		<polyline class="st3" points="389.1,2146.5 431.4,2061.9 389.1,1977.3 431.4,1892.7 389.1,1808.1 431.4,1723.5 389.1,1638.9 
			431.4,1554.3 		"/>
		<polyline class="st3" points="346.8,2146.5 389.1,2061.9 346.8,1977.3 389.1,1892.7 346.8,1808.1 389.1,1723.5 346.8,1638.9 
			389.1,1554.3 		"/>
		<polyline class="st3" points="304.5,2146.5 346.8,2061.9 304.5,1977.3 346.8,1892.7 304.5,1808.1 346.8,1723.5 304.5,1638.9 
			346.8,1554.3 		"/>
		<polyline class="st3" points="262.2,2146.5 304.5,2061.9 262.2,1977.3 304.5,1892.7 262.2,1808.1 304.5,1723.5 262.2,1638.9 
			304.5,1554.3 		"/>
		<polyline class="st3" points="219.9,2146.5 262.2,2061.9 219.9,1977.3 262.2,1892.7 219.9,1808.1 262.2,1723.5 219.9,1638.9 
			262.2,1554.3 		"/>
		<polyline class="st3" points="177.6,2146.5 219.9,2061.9 177.6,1977.3 219.9,1892.7 177.6,1808.1 219.9,1723.5 177.6,1638.9 
			219.9,1554.3 		"/>
		<polyline class="st3" points="135.3,2146.5 177.6,2061.9 135.3,1977.3 177.6,1892.7 135.3,1808.1 177.6,1723.5 135.3,1638.9 
			177.6,1554.3 		"/>
		<polyline class="st3" points="93,2146.5 135.3,2061.9 93,1977.3 135.3,1892.7 93,1808.1 135.3,1723.5 93,1638.9 135.3,1554.3 		
			"/>
		<polyline class="st3" points="50.7,2146.5 93,2061.9 50.7,1977.3 93,1892.7 50.7,1808.1 93,1723.5 50.7,1638.9 93,1554.3 		"/>
		<polyline class="st3" points="8.4,2146.5 50.7,2061.9 8.4,1977.3 50.7,1892.7 8.4,1808.1 50.7,1723.5 8.4,1638.9 50.7,1554.3 		
			"/>
		<polyline class="st3" points="-33.9,2146.5 8.4,2061.9 -33.9,1977.3 8.4,1892.7 -33.9,1808.1 8.4,1723.5 -33.9,1638.9 8.4,1554.3 
					"/>
		<polyline class="st3" points="-76.2,2146.5 -33.9,2061.9 -76.2,1977.3 -33.9,1892.7 -76.2,1808.1 -33.9,1723.5 -76.2,1638.9 
			-33.9,1554.3 		"/>
		<polyline class="st3" points="-118.5,2146.5 -76.2,2061.9 -118.5,1977.3 -76.2,1892.7 -118.5,1808.1 -76.2,1723.5 -118.5,1638.9 
			-76.2,1554.3 		"/>
		<polyline class="st3" points="-160.8,2146.5 -118.5,2061.9 -160.8,1977.3 -118.5,1892.7 -160.8,1808.1 -118.5,1723.5 
			-160.8,1638.9 -118.5,1554.3 		"/>
		<rect x="491.7" y="1554.3" class="st3" width="592.2" height="592.2"/>
		<polyline class="st3" points="1083.9,2104.2 999.3,2146.5 914.7,2104.2 830.1,2146.5 745.5,2104.2 660.9,2146.5 576.3,2104.2 
			491.7,2146.5 		"/>
		<polyline class="st3" points="1083.9,2061.9 999.3,2104.2 914.7,2061.9 830.1,2104.2 745.5,2061.9 660.9,2104.2 576.3,2061.9 
			491.7,2104.2 		"/>
		<polyline class="st3" points="1083.9,2019.6 999.3,2061.9 914.7,2019.6 830.1,2061.9 745.5,2019.6 660.9,2061.9 576.3,2019.6 
			491.7,2061.9 		"/>
		<polyline class="st3" points="1083.9,1977.3 999.3,2019.6 914.7,1977.3 830.1,2019.6 745.5,1977.3 660.9,2019.6 576.3,1977.3 
			491.7,2019.6 		"/>
		<polyline class="st3" points="1083.9,1935 999.3,1977.3 914.7,1935 830.1,1977.3 745.5,1935 660.9,1977.3 576.3,1935 
			491.7,1977.3 		"/>
		<polyline class="st3" points="1083.9,1892.7 999.3,1935 914.7,1892.7 830.1,1935 745.5,1892.7 660.9,1935 576.3,1892.7 
			491.7,1935 		"/>
		<polyline class="st3" points="1083.9,1850.4 999.3,1892.7 914.7,1850.4 830.1,1892.7 745.5,1850.4 660.9,1892.7 576.3,1850.4 
			491.7,1892.7 		"/>
		<polyline class="st3" points="1083.9,1808.1 999.3,1850.4 914.7,1808.1 830.1,1850.4 745.5,1808.1 660.9,1850.4 576.3,1808.1 
			491.7,1850.4 		"/>
		<polyline class="st3" points="1083.9,1765.8 999.3,1808.1 914.7,1765.8 830.1,1808.1 745.5,1765.8 660.9,1808.1 576.3,1765.8 
			491.7,1808.1 		"/>
		<polyline class="st3" points="1083.9,1723.5 999.3,1765.8 914.7,1723.5 830.1,1765.8 745.5,1723.5 660.9,1765.8 576.3,1723.5 
			491.7,1765.8 		"/>
		<polyline class="st3" points="1083.9,1681.2 999.3,1723.5 914.7,1681.2 830.1,1723.5 745.5,1681.2 660.9,1723.5 576.3,1681.2 
			491.7,1723.5 		"/>
		<polyline class="st3" points="1083.9,1638.9 999.3,1681.2 914.7,1638.9 830.1,1681.2 745.5,1638.9 660.9,1681.2 576.3,1638.9 
			491.7,1681.2 		"/>
		<polyline class="st3" points="1083.9,1596.6 999.3,1638.9 914.7,1596.6 830.1,1638.9 745.5,1596.6 660.9,1638.9 576.3,1596.6 
			491.7,1638.9 		"/>
		<polyline class="st3" points="1083.9,1554.3 999.3,1596.6 914.7,1554.3 830.1,1596.6 745.5,1554.3 660.9,1596.6 576.3,1554.3 
			491.7,1596.6 		"/>
		<polyline class="st3" points="491.7,2104.2 576.3,2146.5 660.9,2104.2 745.5,2146.5 830.1,2104.2 914.7,2146.5 999.3,2104.2 
			1083.9,2146.5 		"/>
		<polyline class="st3" points="491.7,2061.9 576.3,2104.2 660.9,2061.9 745.5,2104.2 830.1,2061.9 914.7,2104.2 999.3,2061.9 
			1083.9,2104.2 		"/>
		<polyline class="st3" points="491.7,2019.6 576.3,2061.9 660.9,2019.6 745.5,2061.9 830.1,2019.6 914.7,2061.9 999.3,2019.6 
			1083.9,2061.9 		"/>
		<polyline class="st3" points="491.7,1977.3 576.3,2019.6 660.9,1977.3 745.5,2019.6 830.1,1977.3 914.7,2019.6 999.3,1977.3 
			1083.9,2019.6 		"/>
		<polyline class="st3" points="491.7,1935 576.3,1977.3 660.9,1935 745.5,1977.3 830.1,1935 914.7,1977.3 999.3,1935 
			1083.9,1977.3 		"/>
		<polyline class="st3" points="491.7,1892.7 576.3,1935 660.9,1892.7 745.5,1935 830.1,1892.7 914.7,1935 999.3,1892.7 
			1083.9,1935 		"/>
		<polyline class="st3" points="491.7,1850.4 576.3,1892.7 660.9,1850.4 745.5,1892.7 830.1,1850.4 914.7,1892.7 999.3,1850.4 
			1083.9,1892.7 		"/>
		<polyline class="st3" points="491.7,1808.1 576.3,1850.4 660.9,1808.1 745.5,1850.4 830.1,1808.1 914.7,1850.4 999.3,1808.1 
			1083.9,1850.4 		"/>
		<polyline class="st3" points="491.7,1765.8 576.3,1808.1 660.9,1765.8 745.5,1808.1 830.1,1765.8 914.7,1808.1 999.3,1765.8 
			1083.9,1808.1 		"/>
		<polyline class="st3" points="491.7,1723.5 576.3,1765.8 660.9,1723.5 745.5,1765.8 830.1,1723.5 914.7,1765.8 999.3,1723.5 
			1083.9,1765.8 		"/>
		<polyline class="st3" points="491.7,1681.2 576.3,1723.5 660.9,1681.2 745.5,1723.5 830.1,1681.2 914.7,1723.5 999.3,1681.2 
			1083.9,1723.5 		"/>
		<polyline class="st3" points="491.7,1638.9 576.3,1681.2 660.9,1638.9 745.5,1681.2 830.1,1638.9 914.7,1681.2 999.3,1638.9 
			1083.9,1681.2 		"/>
		<polyline class="st3" points="491.7,1596.6 576.3,1638.9 660.9,1596.6 745.5,1638.9 830.1,1596.6 914.7,1638.9 999.3,1596.6 
			1083.9,1638.9 		"/>
		<polyline class="st3" points="491.7,1554.3 576.3,1596.6 660.9,1554.3 745.5,1596.6 830.1,1554.3 914.7,1596.6 999.3,1554.3 
			1083.9,1596.6 		"/>
		<rect x="-813.2" y="1554.3" class="st3" width="592.2" height="592.2"/>
		<polyline class="st3" points="-813.2,1638.9 -728.6,1554.3 -644,1638.9 -559.4,1554.3 -474.8,1638.9 -390.2,1554.3 -305.6,1638.9 
			-221,1554.3 		"/>
		<polyline class="st3" points="-813.2,1723.5 -728.6,1638.9 -644,1723.5 -559.4,1638.9 -474.8,1723.5 -390.2,1638.9 -305.6,1723.5 
			-221,1638.9 		"/>
		<polyline class="st3" points="-813.2,1808.1 -728.6,1723.5 -644,1808.1 -559.4,1723.5 -474.8,1808.1 -390.2,1723.5 -305.6,1808.1 
			-221,1723.5 		"/>
		<polyline class="st3" points="-813.2,1892.7 -728.6,1808.1 -644,1892.7 -559.4,1808.1 -474.8,1892.7 -390.2,1808.1 -305.6,1892.7 
			-221,1808.1 		"/>
		<polyline class="st3" points="-813.2,1977.3 -728.6,1892.7 -644,1977.3 -559.4,1892.7 -474.8,1977.3 -390.2,1892.7 -305.6,1977.3 
			-221,1892.7 		"/>
		<polyline class="st3" points="-813.2,2061.9 -728.6,1977.3 -644,2061.9 -559.4,1977.3 -474.8,2061.9 -390.2,1977.3 -305.6,2061.9 
			-221,1977.3 		"/>
		<polyline class="st3" points="-813.2,2146.5 -728.6,2061.9 -644,2146.5 -559.4,2061.9 -474.8,2146.5 -390.2,2061.9 -305.6,2146.5 
			-221,2061.9 		"/>
		<polyline class="st3" points="-221,1638.9 -305.6,1554.3 -390.2,1638.9 -474.8,1554.3 -559.4,1638.9 -644,1554.3 -728.6,1638.9 
			-813.2,1554.3 		"/>
		<polyline class="st3" points="-221,1723.5 -305.6,1638.9 -390.2,1723.5 -474.8,1638.9 -559.4,1723.5 -644,1638.9 -728.6,1723.5 
			-813.2,1638.9 		"/>
		<polyline class="st3" points="-221,1808.1 -305.6,1723.5 -390.2,1808.1 -474.8,1723.5 -559.4,1808.1 -644,1723.5 -728.6,1808.1 
			-813.2,1723.5 		"/>
		<polyline class="st3" points="-221,1892.7 -305.6,1808.1 -390.2,1892.7 -474.8,1808.1 -559.4,1892.7 -644,1808.1 -728.6,1892.7 
			-813.2,1808.1 		"/>
		<polyline class="st3" points="-221,1977.3 -305.6,1892.7 -390.2,1977.3 -474.8,1892.7 -559.4,1977.3 -644,1892.7 -728.6,1977.3 
			-813.2,1892.7 		"/>
		<polyline class="st3" points="-221,2061.9 -305.6,1977.3 -390.2,2061.9 -474.8,1977.3 -559.4,2061.9 -644,1977.3 -728.6,2061.9 
			-813.2,1977.3 		"/>
		<polyline class="st3" points="-221,2146.5 -305.6,2061.9 -390.2,2146.5 -474.8,2061.9 -559.4,2146.5 -644,2061.9 -728.6,2146.5 
			-813.2,2061.9 		"/>
		<g class="st5">
			<defs>
				<rect id="SVGID_3_" x="-1282" y="-319.8" width="2834.6" height="2931.1"/>
			</defs>
			<clipPath id="SVGID_4_">
				<use xlink:href="#SVGID_3_"  style="overflow:visible;"/>
			</clipPath>
			<path class="st6" d="M-600.5,849.1l-1.9,5.6h-2.4l6.1-17.9h2.8l6.1,17.9h-2.5l-1.9-5.6H-600.5z M-594.6,847.3l-1.8-5.2
				c-0.4-1.2-0.7-2.2-0.9-3.3h-0.1c-0.3,1.1-0.6,2.2-0.9,3.2l-1.8,5.2H-594.6z M-593.4,832.8l-3.4,3.1h-1.9l2.5-3.1H-593.4z"/>
			<path class="st6" d="M-587.1,854.7v-17.9h2.5l5.7,9.1c1.3,2.1,2.4,4,3.2,5.8l0.1,0c-0.2-2.4-0.3-4.6-0.3-7.4v-7.5h2.2v17.9h-2.3
				l-5.7-9.1c-1.2-2-2.4-4-3.3-6l-0.1,0c0.1,2.3,0.2,4.4,0.2,7.4v7.6H-587.1z"/>
			<path class="st6" d="M-556,853.9c-1,0.4-3.1,1-5.5,1c-2.7,0-4.9-0.7-6.7-2.4c-1.5-1.5-2.5-3.9-2.5-6.7c0-5.3,3.7-9.2,9.7-9.2
				c2.1,0,3.7,0.5,4.5,0.8l-0.6,1.9c-1-0.4-2.2-0.8-4-0.8c-4.4,0-7.2,2.7-7.2,7.2c0,4.5,2.7,7.2,6.9,7.2c1.5,0,2.6-0.2,3.1-0.5v-5.3
				h-3.6v-1.9h5.9V853.9z"/>
			<path class="st6" d="M-550.2,836.8v10.6c0,4,1.8,5.7,4.2,5.7c2.7,0,4.4-1.8,4.4-5.7v-10.6h2.3v10.4c0,5.5-2.9,7.8-6.8,7.8
				c-3.7,0-6.4-2.1-6.4-7.6v-10.5H-550.2z"/>
			<polygon class="st6" points="-535.3,836.8 -533,836.8 -533,852.8 -525.3,852.8 -525.3,854.7 -535.3,854.7 			"/>
			<path class="st6" d="M-508.5,845.6c0,6.2-3.7,9.4-8.3,9.4c-4.7,0-8-3.7-8-9.1c0-5.7,3.5-9.4,8.3-9.4
				C-511.7,836.5-508.5,840.3-508.5,845.6 M-522.4,845.9c0,3.8,2.1,7.3,5.7,7.3c3.7,0,5.7-3.4,5.7-7.4c0-3.6-1.9-7.3-5.7-7.3
				C-520.5,838.4-522.4,842-522.4,845.9"/>
			<path class="st6" d="M-499.8,837.1c1.4-0.2,3.1-0.4,4.9-0.4c3.3,0,5.7,0.8,7.3,2.2c1.6,1.5,2.5,3.5,2.5,6.4c0,2.9-0.9,5.3-2.6,7
				c-1.7,1.7-4.4,2.6-7.9,2.6c-1.6,0-3-0.1-4.2-0.2V837.1z M-497.5,852.9c0.6,0.1,1.4,0.1,2.3,0.1c4.9,0,7.6-2.8,7.6-7.6
				c0-4.2-2.4-6.9-7.3-6.9c-1.2,0-2.1,0.1-2.7,0.2V852.9z"/>
			<polygon class="st6" points="-472.9,846.3 -479.8,846.3 -479.8,852.8 -472.1,852.8 -472.1,854.7 -482.1,854.7 -482.1,836.8 
				-472.5,836.8 -472.5,838.8 -479.8,838.8 -479.8,844.4 -472.9,844.4 			"/>
			<path class="st6" d="M-457,854.7V850h-8v-1.5l7.7-11h2.5v10.7h2.4v1.8h-2.4v4.7H-457z M-457,848.2v-5.8c0-0.9,0-1.8,0.1-2.7h-0.1
				c-0.5,1-1,1.8-1.4,2.5l-4.2,5.9v0.1H-457z"/>
			<path class="st6" d="M-440.3,839.4h-6.6l-0.7,4.4c0.4-0.1,0.8-0.1,1.4-0.1c1.3,0,2.7,0.3,3.7,0.9c1.4,0.8,2.5,2.3,2.5,4.4
				c0,3.4-2.7,5.9-6.4,5.9c-1.9,0-3.5-0.5-4.3-1.1l0.6-1.8c0.7,0.4,2.1,1,3.7,1c2.2,0,4.1-1.4,4.1-3.7c0-2.2-1.5-3.8-5-3.8
				c-1,0-1.8,0.1-2.4,0.2l1.1-8.3h8.3V839.4z"/>
			<path class="st6" d="M-429.2,843.4c0,3.1-2.2,4.4-4.2,4.4c-2.4,0-4.2-1.7-4.2-4.3c0-2.8,2-4.5,4.3-4.5
				C-430.9,839-429.2,840.9-429.2,843.4 M-435.9,843.4c0,1.8,1.1,3,2.5,3c1.4,0,2.4-1.2,2.4-3.1c0-1.3-0.7-3.1-2.5-3.1
				C-435.2,840.4-435.9,842-435.9,843.4"/>
			<path class="st6" d="M51.9,849.1l-1.9,5.6h-2.4l6.1-17.9h2.8l6.1,17.9h-2.5l-1.9-5.6H51.9z M57.8,847.3l-1.8-5.2
				c-0.4-1.2-0.7-2.2-0.9-3.3h-0.1c-0.3,1.1-0.6,2.2-0.9,3.2l-1.8,5.2H57.8z M59.1,832.8l-3.4,3.1h-1.9l2.5-3.1H59.1z"/>
			<path class="st6" d="M65.3,854.7v-17.9h2.5l5.7,9.1c1.3,2.1,2.4,4,3.2,5.8l0.1,0c-0.2-2.4-0.3-4.6-0.3-7.4v-7.5h2.2v17.9h-2.3
				l-5.7-9.1c-1.2-2-2.4-4-3.3-6l-0.1,0c0.1,2.3,0.2,4.4,0.2,7.4v7.6H65.3z"/>
			<path class="st6" d="M96.4,853.9c-1,0.4-3.1,1-5.5,1c-2.7,0-4.9-0.7-6.7-2.4c-1.5-1.5-2.5-3.9-2.5-6.7c0-5.3,3.7-9.2,9.7-9.2
				c2.1,0,3.7,0.5,4.5,0.8l-0.6,1.9c-1-0.4-2.2-0.8-4-0.8c-4.4,0-7.2,2.7-7.2,7.2c0,4.5,2.7,7.2,6.9,7.2c1.5,0,2.5-0.2,3.1-0.5v-5.3
				h-3.6v-1.9h5.9V853.9z"/>
			<path class="st6" d="M102.3,836.8v10.6c0,4,1.8,5.7,4.2,5.7c2.7,0,4.4-1.8,4.4-5.7v-10.6h2.3v10.4c0,5.5-2.9,7.8-6.8,7.8
				c-3.7,0-6.4-2.1-6.4-7.6v-10.5H102.3z"/>
			<polygon class="st6" points="117.1,836.8 119.5,836.8 119.5,852.8 127.1,852.8 127.1,854.7 117.1,854.7 			"/>
			<path class="st6" d="M143.9,845.6c0,6.2-3.7,9.4-8.3,9.4c-4.7,0-8-3.7-8-9.1c0-5.7,3.5-9.4,8.3-9.4
				C140.8,836.5,143.9,840.3,143.9,845.6 M130.1,845.9c0,3.8,2.1,7.3,5.7,7.3c3.7,0,5.7-3.4,5.7-7.4c0-3.6-1.9-7.3-5.7-7.3
				C132,838.4,130.1,842,130.1,845.9"/>
			<path class="st6" d="M152.6,837.1c1.4-0.2,3.1-0.4,4.9-0.4c3.3,0,5.7,0.8,7.2,2.2c1.6,1.5,2.5,3.5,2.5,6.4c0,2.9-0.9,5.3-2.6,7
				c-1.7,1.7-4.4,2.6-7.9,2.6c-1.6,0-3-0.1-4.2-0.2V837.1z M154.9,852.9c0.6,0.1,1.4,0.1,2.3,0.1c4.9,0,7.6-2.8,7.6-7.6
				c0-4.2-2.4-6.9-7.3-6.9c-1.2,0-2.1,0.1-2.7,0.2V852.9z"/>
			<polygon class="st6" points="179.6,846.3 172.6,846.3 172.6,852.8 180.4,852.8 180.4,854.7 170.3,854.7 170.3,836.8 180,836.8 
				180,838.8 172.6,838.8 172.6,844.4 179.6,844.4 			"/>
			<path class="st6" d="M198,839.1c-0.5,0-1.1,0-1.8,0.1c-3.7,0.6-5.6,3.3-6,6.1h0.1c0.8-1.1,2.3-2,4.2-2c3.1,0,5.2,2.2,5.2,5.6
				c0,3.2-2.2,6.1-5.7,6.1c-3.7,0-6.1-2.9-6.1-7.4c0-3.4,1.2-6.1,2.9-7.8c1.4-1.4,3.3-2.3,5.5-2.6c0.7-0.1,1.3-0.1,1.7-0.1V839.1z
				 M197.4,849.1c0-2.5-1.4-4-3.6-4c-1.4,0-2.7,0.9-3.3,2.1c-0.2,0.3-0.3,0.6-0.3,1c0.1,2.8,1.4,4.9,3.8,4.9
				C196,853.2,197.4,851.6,197.4,849.1"/>
			<path class="st6" d="M213.3,845.9c0,5.9-2.2,9.1-6,9.1c-3.4,0-5.7-3.2-5.7-8.9c0-5.8,2.5-9,6-9
				C211.2,837.2,213.3,840.4,213.3,845.9 M203.9,846.2c0,4.5,1.4,7,3.5,7c2.4,0,3.5-2.8,3.5-7.2c0-4.2-1.1-7-3.5-7
				C205.4,839,203.9,841.5,203.9,846.2"/>
			<path class="st6" d="M223.2,843.4c0,3.1-2.2,4.4-4.2,4.4c-2.4,0-4.2-1.7-4.2-4.3c0-2.8,2-4.5,4.3-4.5
				C221.6,839,223.2,840.9,223.2,843.4 M216.5,843.4c0,1.8,1.1,3,2.5,3c1.4,0,2.4-1.2,2.4-3.1c0-1.3-0.7-3.1-2.5-3.1
				C217.2,840.4,216.5,842,216.5,843.4"/>
			<path class="st6" d="M704.4,849.1l-1.9,5.6h-2.4l6.1-17.9h2.8l6.1,17.9h-2.5l-1.9-5.6H704.4z M710.2,847.3l-1.8-5.2
				c-0.4-1.2-0.7-2.2-0.9-3.3h-0.1c-0.3,1.1-0.6,2.2-0.9,3.2l-1.8,5.2H710.2z M711.5,832.8l-3.4,3.1h-1.9l2.5-3.1H711.5z"/>
			<path class="st6" d="M717.7,854.7v-17.9h2.5l5.7,9.1c1.3,2.1,2.4,4,3.2,5.8l0.1,0c-0.2-2.4-0.3-4.6-0.3-7.4v-7.5h2.2v17.9h-2.3
				l-5.7-9.1c-1.2-2-2.4-4-3.3-6l-0.1,0c0.1,2.3,0.2,4.4,0.2,7.4v7.6H717.7z"/>
			<path class="st6" d="M748.8,853.9c-1,0.4-3.1,1-5.5,1c-2.7,0-4.9-0.7-6.7-2.4c-1.5-1.5-2.5-3.9-2.5-6.7c0-5.3,3.7-9.2,9.7-9.2
				c2.1,0,3.7,0.5,4.5,0.8l-0.6,1.9c-1-0.4-2.2-0.8-4-0.8c-4.4,0-7.2,2.7-7.2,7.2c0,4.5,2.7,7.2,6.9,7.2c1.5,0,2.5-0.2,3.1-0.5v-5.3
				h-3.6v-1.9h5.9V853.9z"/>
			<path class="st6" d="M754.7,836.8v10.6c0,4,1.8,5.7,4.2,5.7c2.7,0,4.4-1.8,4.4-5.7v-10.6h2.3v10.4c0,5.5-2.9,7.8-6.8,7.8
				c-3.7,0-6.4-2.1-6.4-7.6v-10.5H754.7z"/>
			<polygon class="st6" points="769.6,836.8 771.9,836.8 771.9,852.8 779.5,852.8 779.5,854.7 769.6,854.7 			"/>
			<path class="st6" d="M796.4,845.6c0,6.2-3.7,9.4-8.3,9.4c-4.7,0-8-3.7-8-9.1c0-5.7,3.5-9.4,8.3-9.4
				C793.2,836.5,796.4,840.3,796.4,845.6 M782.5,845.9c0,3.8,2.1,7.3,5.7,7.3c3.7,0,5.7-3.4,5.7-7.4c0-3.6-1.9-7.3-5.7-7.3
				C784.4,838.4,782.5,842,782.5,845.9"/>
			<path class="st6" d="M805,837.1c1.4-0.2,3.1-0.4,4.9-0.4c3.3,0,5.7,0.8,7.3,2.2c1.6,1.5,2.5,3.5,2.5,6.4c0,2.9-0.9,5.3-2.6,7
				c-1.7,1.7-4.4,2.6-7.9,2.6c-1.6,0-3-0.1-4.2-0.2V837.1z M807.3,852.9c0.6,0.1,1.4,0.1,2.3,0.1c4.9,0,7.6-2.8,7.6-7.6
				c0-4.2-2.4-6.9-7.3-6.9c-1.2,0-2.1,0.1-2.7,0.2V852.9z"/>
			<polygon class="st6" points="832,846.3 825,846.3 825,852.8 832.8,852.8 832.8,854.7 822.7,854.7 822.7,836.8 832.4,836.8 
				832.4,838.8 825,838.8 825,844.4 832,844.4 			"/>
			<path class="st6" d="M841.2,852.1c0.7,0.4,2.2,1.1,3.8,1.1c3,0,3.9-1.9,3.9-3.3c0-2.4-2.2-3.5-4.5-3.5h-1.3v-1.8h1.3
				c1.7,0,3.9-0.9,3.9-2.9c0-1.4-0.9-2.6-3-2.6c-1.4,0-2.7,0.6-3.5,1.1l-0.6-1.7c0.9-0.7,2.7-1.3,4.5-1.3c3.4,0,4.9,2,4.9,4.1
				c0,1.8-1.1,3.3-3.2,4.1v0.1c2.1,0.4,3.9,2,3.9,4.4c0,2.8-2.2,5.2-6.3,5.2c-1.9,0-3.6-0.6-4.5-1.2L841.2,852.1z"/>
			<path class="st6" d="M865.7,845.9c0,5.9-2.2,9.1-6,9.1c-3.4,0-5.7-3.2-5.7-8.9c0-5.8,2.5-9,6-9
				C863.6,837.2,865.7,840.4,865.7,845.9 M856.3,846.2c0,4.5,1.4,7,3.5,7c2.4,0,3.5-2.8,3.5-7.2c0-4.2-1.1-7-3.5-7
				C857.8,839,856.3,841.5,856.3,846.2"/>
			<path class="st6" d="M875.6,843.4c0,3.1-2.2,4.4-4.2,4.4c-2.4,0-4.2-1.7-4.2-4.3c0-2.8,2-4.5,4.3-4.5
				C874,839,875.6,840.9,875.6,843.4 M868.9,843.4c0,1.8,1.1,3,2.5,3c1.4,0,2.4-1.2,2.4-3.1c0-1.3-0.7-3.1-2.5-3.1
				C869.7,840.4,868.9,842,868.9,843.4"/>
			<rect x="1360.6" y="2501.2" class="st7" width="11.4" height="2.6"/>
			<path class="st7" d="M1396.3,2462c-2,1-3.4,2.4-4.2,4.2c-0.9,1.8-1.3,4.3-1.3,7.5v10.6c0,2.7,0.2,4.8,0.6,6.2
				c0.4,1.4,1.1,2.7,2.1,3.9c1,1.2,2.4,2.1,4.2,2.8c1.8,0.7,3.8,1,6.2,1c2.4,0,4.4-0.3,6-1c1.6-0.7,2.9-1.7,4-3.1
				c1-1.4,1.7-2.7,2-3.9c0.3-1.2,0.4-2.9,0.4-5.2v-2.7h-10.5v4.8c0,1.8-0.1,3-0.4,3.7c-0.3,0.6-0.8,0.9-1.7,0.9
				c-0.7,0-1.1-0.2-1.4-0.7c-0.2-0.5-0.4-1.5-0.4-3.2v-7.9h14.3v-4.8c0-3.5-0.4-6.3-1.2-8.2c-0.8-1.9-2.2-3.5-4.2-4.7
				c-2-1.2-4.6-1.8-7.7-1.8C1400.5,2460.5,1398.3,2461,1396.3,2462 M1404.8,2467.7c0.2,0.5,0.3,1.8,0.3,3.6v2.7h-3.2v-2.7
				c0-2,0.1-3.3,0.3-3.8c0.2-0.5,0.7-0.7,1.4-0.7C1404.2,2466.9,1404.6,2467.2,1404.8,2467.7"/>
			<path class="st7" d="M1354.3,2532.1v-20.3h3v-5.7h-3v-4.8h-11.1v4.8h-2.4v5.7h2.4v19.3c0,3.6,0.1,5.9,0.3,6.9
				c0.2,1,0.7,1.8,1.5,2.6c0.8,0.8,1.8,1.2,2.8,1.5c1.1,0.2,2.9,0.3,5.4,0.3h4.5v-5.9c-1.8,0-2.8-0.1-3.1-0.4
				C1354.4,2535.8,1354.3,2534.4,1354.3,2532.1"/>
			<path class="st7" d="M1347.3,2496.5c1.8,1.1,4.3,1.6,7.4,1.6c2.4,0,4.5-0.4,6.2-1.2c1.7-0.8,3-1.9,4-3.4c1-1.5,1.6-3,1.8-4.5
				c0.2-1.5,0.3-3.6,0.3-6.5h-9.9v4.3c0,1.9-0.1,3.2-0.4,3.8c-0.3,0.7-0.8,1-1.5,1c-0.6,0-1.1-0.3-1.5-1c-0.3-0.6-0.5-1.6-0.5-2.9
				v-17.1c0-1.6,0.1-2.6,0.3-3.1c0.2-0.5,0.6-0.7,1.3-0.7c0.6,0,1.1,0.3,1.3,0.8c0.2,0.5,0.4,1.5,0.4,3v4.2h10.4
				c0-3.4-0.3-6.1-1-7.9c-0.7-1.9-2-3.4-4.1-4.6c-2-1.2-4.5-1.8-7.4-1.8c-2.9,0-5.4,0.6-7.4,1.8c-2,1.2-3.3,2.6-4,4.2
				c-0.6,1.6-0.9,3.9-0.9,7v10.3c0,3.5,0.4,6.3,1.1,8.2C1344.2,2494,1345.5,2495.5,1347.3,2496.5"/>
			<rect x="1360.6" y="2506" class="st7" width="11.4" height="36.3"/>
			<path class="st7" d="M1388.8,2518.3c-0.6,7.6-1,12.3-1.2,14.3l-3.1-26.5h-9.9l5.6,36.3h14.5l5.2-36.3h-9.9
				C1389.4,2510,1389.1,2514,1388.8,2518.3"/>
			<path class="st7" d="M1424.7,2509.3c-1-1.2-2.3-2.1-4.1-2.9c-1.8-0.7-3.9-1.1-6.4-1.1c-3,0-5.4,0.6-7.3,1.7
				c-1.9,1.1-3.2,2.7-3.9,4.6c-0.7,1.9-1.1,4.5-1.1,7.9v9.3c0,3.1,0.2,5.4,0.6,6.9c0.4,1.5,1.1,2.9,2,3.9c0.9,1.1,2.3,1.9,4,2.4
				c1.7,0.5,3.8,0.8,6.2,0.8c2.2,0,4.1-0.3,5.8-0.9c1.7-0.6,3.1-1.6,4.1-2.9c1.1-1.3,1.8-2.7,2.1-4.3c0.3-1.5,0.5-3.9,0.5-7.2v-8.9
				c0-2.6-0.2-4.5-0.5-5.7C1426.4,2511.7,1425.7,2510.5,1424.7,2509.3 M1416.2,2532.8c0,1.6-0.1,2.6-0.3,3.1
				c-0.2,0.5-0.6,0.7-1.3,0.7c-0.6,0-1.1-0.3-1.3-0.8c-0.2-0.5-0.3-1.6-0.3-3.4V2516c0-1.9,0.1-3,0.3-3.5c0.2-0.5,0.7-0.7,1.3-0.7
				s1.1,0.2,1.3,0.7c0.2,0.5,0.3,1.7,0.3,3.5V2532.8z"/>
			<path class="st7" d="M1440.3,2462.5c-1.9-1.3-4.7-2-8.5-2c-3.1,0-5.7,0.6-7.6,1.8c-2,1.2-3.3,2.5-3.9,4c-0.6,1.5-1,3.7-1,6.5v2.4
				h10.4v-3.8c0-2,0.1-3.3,0.3-3.8c0.2-0.5,0.6-0.7,1.4-0.7c0.7,0,1.1,0.3,1.4,0.9c0.3,0.6,0.4,1.8,0.4,3.7c0,1.5-0.1,2.5-0.4,3
				c-0.3,0.5-2.2,1.5-5.8,2.9c-3.4,1.3-5.5,2.5-6.4,3.4c-0.9,1-1.3,2.8-1.3,5.6v3c0,3.7,0.8,6,2.4,7.1c1.6,1.1,3.4,1.6,5.3,1.6
				c1.5,0,2.8-0.3,3.8-1c1.1-0.6,1.9-1.6,2.6-2.9v3.2h10.8v-18.2c0-6-0.2-10-0.6-11.9C1443.3,2465.4,1442.2,2463.8,1440.3,2462.5
				 M1433.2,2487.7c0,1.8-0.1,3-0.3,3.4c-0.2,0.4-0.7,0.6-1.4,0.6c-0.7,0-1.2-0.3-1.5-0.8c-0.2-0.5-0.4-1.8-0.4-3.6
				c0-1.6,0.1-2.9,0.4-3.8c0.3-0.9,1.3-2,3.1-3.3V2487.7z"/>
			<path class="st7" d="M1382.2,2483.1c0-3.5,0.1-5.8,0.3-6.7c0.2-1,0.8-1.7,1.8-2.3c0.9-0.5,2.4-0.8,4.5-0.8v-12.8
				c-3,0.2-5.4,2-7,5.4l0.4-4.8h-11.1v36.3h11.1V2483.1z"/>
			<path class="st7" d="M1486.4,2424.8c-0.4-1.3-1-2.5-2-3.7c-1-1.2-2.3-2.1-4.1-2.9c-1.8-0.7-3.9-1.1-6.4-1.1c-3,0-5.4,0.6-7.3,1.7
				c-1.9,1.1-3.2,2.7-3.9,4.6c-0.7,1.9-1.1,4.5-1.1,7.9v9.3c0,3.1,0.2,5.4,0.6,6.9c0.4,1.5,1.1,2.9,2,3.9c0.9,1.1,2.3,1.9,4,2.4
				c1.7,0.5,3.8,0.8,6.2,0.8c2.2,0,4.1-0.3,5.8-0.9c1.7-0.6,3.1-1.6,4.1-2.9c1.1-1.3,1.8-2.7,2.1-4.3c0.3-1.5,0.5-3.9,0.5-7.2v-8.9
				C1486.9,2428,1486.7,2426.1,1486.4,2424.8 M1475.9,2444.6c0,1.6-0.1,2.6-0.3,3.1c-0.2,0.5-0.6,0.7-1.3,0.7
				c-0.6,0-1.1-0.3-1.3-0.8c-0.2-0.5-0.3-1.6-0.3-3.4v-16.4c0-1.9,0.1-3,0.3-3.5c0.2-0.5,0.7-0.7,1.3-0.7c0.7,0,1.1,0.2,1.3,0.7
				c0.2,0.5,0.3,1.7,0.3,3.5V2444.6z"/>
			<path class="st7" d="M1387.8,2453.1c1.6,1.1,3.4,1.6,5.3,1.6c1.5,0,2.8-0.3,3.8-1c1.1-0.6,1.9-1.6,2.6-2.9v3.2h10.8v-18.2
				c0-6-0.2-10-0.6-11.9c-0.4-1.9-1.5-3.5-3.4-4.9c-1.9-1.3-4.7-2-8.5-2c-3.1,0-5.7,0.6-7.6,1.8c-2,1.2-3.3,2.5-3.9,4
				c-0.6,1.5-1,3.7-1,6.5v2.4h10.4v-3.8c0-2,0.1-3.3,0.3-3.8c0.2-0.5,0.6-0.7,1.4-0.7c0.7,0,1.1,0.3,1.4,0.9
				c0.3,0.6,0.4,1.8,0.4,3.7c0,1.5-0.1,2.5-0.4,3c-0.3,0.5-2.2,1.5-5.8,2.9c-3.4,1.3-5.5,2.5-6.4,3.4c-0.9,1-1.3,2.8-1.3,5.6v3
				C1385.4,2449.7,1386.2,2452.1,1387.8,2453.1 M1396.2,2440.1c0.3-0.9,1.3-2,3.1-3.3v7.5c0,1.8-0.1,3-0.3,3.4
				c-0.2,0.4-0.7,0.6-1.4,0.6c-0.7,0-1.2-0.3-1.5-0.8c-0.2-0.5-0.4-1.8-0.4-3.6C1395.7,2442.2,1395.9,2441,1396.2,2440.1"/>
			<path class="st7" d="M1425.2,2439.8c0-3.5,0.1-5.8,0.3-6.7c0.2-1,0.8-1.7,1.8-2.3c1-0.5,2.4-0.8,4.5-0.8v-12.8
				c-3,0.2-5.4,2-7,5.4l0.4-4.8h-11.1v36.3h11.1V2439.8z"/>
			<path class="st7" d="M1458.6,2431.5c0-3.4-0.3-6.1-1-7.9c-0.7-1.9-2-3.4-4.1-4.6c-2-1.2-4.5-1.8-7.4-1.8c-2.9,0-5.4,0.6-7.4,1.8
				c-2,1.2-3.3,2.6-4,4.2c-0.6,1.6-0.9,3.9-0.9,7v10.3c0,3.5,0.4,6.3,1.1,8.2c0.8,1.9,2,3.4,3.9,4.5c1.8,1.1,4.3,1.6,7.4,1.6
				c2.4,0,4.5-0.4,6.2-1.2c1.7-0.8,3-1.9,4-3.4c1-1.5,1.6-3,1.8-4.5c0.2-1.5,0.3-3.6,0.3-6.5h-9.9v4.3c0,1.9-0.1,3.2-0.4,3.8
				c-0.3,0.7-0.8,1-1.5,1c-0.6,0-1.1-0.3-1.5-1c-0.3-0.6-0.5-1.6-0.5-2.9v-17.1c0-1.6,0.1-2.6,0.3-3.1c0.2-0.5,0.6-0.7,1.3-0.7
				c0.6,0,1.1,0.3,1.3,0.8c0.2,0.5,0.4,1.5,0.4,3v4.2H1458.6z"/>
			<path class="st7" d="M1353.4,2428.9c0-1.8,0-2.9,0.1-3.4c0-0.5,0.2-1,0.6-1.4c0.3-0.4,0.8-0.6,1.3-0.6c0.8,0,1.3,0.4,1.4,1.1
				c0.2,0.7,0.3,2.8,0.3,6.4v23.1h10.7v-23.7c0-3.1,0.1-5,0.3-5.8c0.2-0.7,0.7-1.1,1.5-1.1c0.8,0,1.3,0.4,1.5,1.1
				c0.2,0.7,0.3,2.7,0.3,5.8v23.7h10.7v-25.8c0-3-0.2-5.1-0.5-6.4c-0.3-1.3-1.1-2.4-2.4-3.4c-1.2-0.9-2.8-1.4-4.7-1.4
				c-1.4,0-2.7,0.3-3.9,1c-1.2,0.7-2.2,1.7-3.1,3.1c-1.7-2.7-4-4.1-7-4.1c-1.5,0-2.9,0.3-4.1,1c-1.2,0.7-2.2,1.7-3.1,3.1l0.2-3.5
				h-10.9v36.3h10.7V2428.9z"/>
			<path class="st7" d="M1437.4,2535.8c0-0.5-0.2-0.8-0.5-1c-0.4-0.2-0.9-0.3-1.6-0.3h-1.9v5.1h1v-2.2h0.9l1,2.2h1.1l-1.1-2.3
				c0.4-0.1,0.7-0.2,0.9-0.5C1437.3,2536.4,1437.4,2536.1,1437.4,2535.8 M1436.1,2536.5c-0.2,0.1-0.5,0.2-1,0.2h-0.8v-1.7h0.8
				c0.5,0,0.8,0.1,1,0.2c0.2,0.1,0.3,0.4,0.3,0.7C1436.4,2536.2,1436.3,2536.4,1436.1,2536.5"/>
			<path class="st7" d="M1437.9,2533.5c-0.4-0.3-0.8-0.5-1.3-0.7c-0.5-0.2-0.9-0.2-1.5-0.2c-0.7,0-1.4,0.1-2,0.4
				c-0.6,0.3-1.1,0.7-1.5,1.3c-0.3,0.4-0.6,0.9-0.7,1.3c-0.2,0.5-0.2,1-0.2,1.4c0,0.6,0.1,1.1,0.3,1.7c0.2,0.5,0.5,1,1,1.4
				c0.4,0.4,0.9,0.8,1.5,1c0.5,0.2,1.1,0.3,1.7,0.3c0.6,0,1.1-0.1,1.7-0.3c0.5-0.2,1-0.6,1.5-1c0.4-0.4,0.7-0.9,1-1.4
				c0.2-0.5,0.3-1.1,0.3-1.7c0-0.7-0.2-1.4-0.5-2C1438.9,2534.4,1438.4,2533.9,1437.9,2533.5 M1438.8,2538.5
				c-0.2,0.5-0.5,0.9-0.8,1.2c-0.4,0.4-0.8,0.6-1.3,0.8c-0.5,0.2-1,0.3-1.5,0.3c-0.5,0-1-0.1-1.5-0.3c-0.5-0.2-0.9-0.5-1.3-0.9
				c-0.4-0.4-0.6-0.8-0.8-1.2c-0.2-0.5-0.3-1-0.3-1.5c0-0.5,0.1-1,0.3-1.5c0.2-0.5,0.5-0.9,0.9-1.3c0.4-0.4,0.8-0.6,1.2-0.8
				c0.5-0.2,1-0.3,1.5-0.3c0.5,0,1,0.1,1.5,0.3c0.5,0.2,0.9,0.5,1.3,0.8c0.4,0.4,0.6,0.8,0.8,1.3c0.2,0.5,0.3,1,0.3,1.5
				C1439.1,2537.6,1439,2538,1438.8,2538.5"/>
		</g>
	</g>
</g>
<path class="st8" d="M585.7,252.9c0-6.8,5.6-12.3,12.4-12.3c6.9,0,12.5,5.5,12.5,12.3c0,6.9-5.5,12.5-12.4,12.5
	C591.2,265.4,585.7,259.9,585.7,252.9z"/>
<path class="st8" d="M552.7,252.9c0-6.8,5.6-12.3,12.4-12.3c6.9,0,12.5,5.5,12.5,12.3c0,6.9-5.5,12.5-12.4,12.5
	C558.2,265.4,552.7,259.9,552.7,252.9z"/>
<g>
	<path class="st8" d="M260.6,353.5c-2.1,0-3.8-0.7-5.2-2.2c-1.4-1.4-2.1-3.2-2.1-5.3v-44.4l-9.6,9.6c-1.9,1.9-4.1,3.4-6.5,4.4
		c-2.4,1-5,1.6-7.7,1.6c-2.7,0-5.3-0.5-7.8-1.6c-2.5-1-4.6-2.5-6.5-4.4l-9.7-9.7v44.6c0,2.1-0.7,3.8-2.2,5.3s-3.2,2.2-5.3,2.2
		c-2.1,0-3.9-0.7-5.3-2.2c-1.5-1.4-2.2-3.2-2.2-5.3v-62.3c0-2.1,0.7-3.8,2.2-5.3s3.2-2.2,5.3-2.2c1.5,0,2.9,0.4,4.2,1.3v-0.1l1,0.8
		l21.4,21.5c1.4,1.3,3.1,1.9,4.9,1.9c1.8,0,3.4-0.6,4.8-1.9l22.1-22.2h0.1c1.3-0.9,2.7-1.3,4.2-1.3c2.1,0,3.8,0.7,5.3,2.2
		s2.2,3.2,2.2,5.3v62.3c0,2.1-0.7,3.8-2.2,5.3S262.6,353.5,260.6,353.5z"/>
	<path class="st8" d="M317.4,276.2c5.4,0,10.4,1,15.1,3.1c4.7,2,8.8,4.8,12.3,8.3c3.5,3.5,6.2,7.6,8.3,12.3c2,4.7,3.1,9.7,3.1,15
		v31.2c0,2.1-0.7,3.8-2.2,5.3s-3.2,2.2-5.3,2.2c-2.1,0-3.9-0.7-5.3-2.2c-1.5-1.4-2.2-3.2-2.2-5.3v-14.4h-23.7v-0.1
		c-0.2,0.1-0.7,0.1-1.3,0.1c-2.6,0-5.2,0.4-7.6,1.2c-2.4,0.8-4.6,1.9-6.5,3.4c-2,1.4-3.7,3.2-5.1,5.2c-1.4,2-2.5,4.2-3.2,6.6
		c-0.1,0.1-0.1,0.2-0.1,0.2c0,0.1,0,0.2-0.1,0.2c-0.5,1.5-1.4,2.7-2.6,3.7c-1.3,0.9-2.8,1.4-4.4,1.4c-2.1,0-3.8-0.7-5.3-2.2
		c-1.4-1.4-2.2-3.2-2.2-5.3V345v-30.2c0-4.7,0.8-9.2,2.4-13.3c1.9-5.1,4.8-9.7,8.6-13.7c3.6-3.6,7.7-6.4,12.4-8.5
		C307,277.2,312,276.2,317.4,276.2z M341.1,316.6v-1.8c0-4.2-1-8-3-11.5c0-0.1,0-0.1-0.1-0.2c0,0-0.1-0.1-0.1-0.2
		c-0.3-0.5-0.6-1-1-1.4c-0.3-0.5-0.6-0.9-1-1.3c-2.2-2.8-4.8-5-8-6.6c-3.2-1.6-6.7-2.4-10.6-2.4c-3.8,0-7.4,0.9-10.6,2.6
		c-3.2,1.7-5.9,4-8.1,6.8c-1.5,2-2.7,4.2-3.5,6.6c-0.8,2.4-1.3,5-1.3,7.7v8.9c3.1-2.2,6.6-4,10.3-5.2c3.8-1.2,7.7-1.9,11.9-1.9h1.3
		H341.1z"/>
	<path class="st8" d="M433.1,276.2c2.1,0,3.9,0.7,5.3,2.2c1.5,1.5,2.2,3.3,2.2,5.3v27.4v1.9v33l-0.1,0.1v0.5v0.4v0.4
		c-0.1,0.1-0.1,0.2-0.1,0.4c0,0.1,0,0.1-0.1,0.2c0,0-0.1,0.1-0.1,0.2c0,0.1,0,0.2-0.1,0.2c0,0.2,0,0.4-0.1,0.5c0,0.1,0,0.2-0.1,0.2
		c0,0.2-0.1,0.3-0.2,0.5v0.1c-0.1,0.1-0.1,0.2-0.2,0.2c0,0.1-0.1,0.2-0.2,0.2v0.1c-0.1,0.1-0.1,0.2-0.2,0.2c0,0.1-0.1,0.2-0.3,0.2
		v0.1l-0.5,0.5l-0.2,0.2l-0.2,0.2c-0.2,0.1-0.4,0.2-0.6,0.5c-0.2,0.1-0.3,0.1-0.3,0.2c0,0-0.1,0.1-0.3,0.2h-0.1
		c-0.2,0.2-0.3,0.2-0.5,0.2c-0.1,0-0.1,0-0.1,0.1c-0.2,0-0.3,0-0.3,0.1c0,0-0.1,0.1-0.3,0.1l-0.2,0.1c-0.1,0-0.1,0-0.2,0.1
		c0,0-0.1,0.1-0.3,0.1h-0.2c-0.1,0-0.1,0-0.2,0.1c0,0-0.1,0.1-0.3,0.1h-0.2h-0.5h-0.1H433h-0.5h-0.4c-0.1,0-0.1,0-0.2-0.1
		c0,0-0.1-0.1-0.2-0.1h-0.4c-0.1-0.1-0.2-0.1-0.4-0.1c-0.1,0-0.1,0-0.2-0.1c0,0-0.1-0.1-0.2-0.1c-0.1,0-0.1,0-0.2-0.1
		c0,0-0.1-0.1-0.2-0.1c-0.1,0-0.1,0-0.1-0.1c0,0,0-0.1-0.1-0.1l-0.5-0.2l-0.1-0.1c-0.2,0-0.3-0.1-0.5-0.2l-0.1-0.1l-0.5-0.2
		c0-0.1,0-0.1-0.1-0.1c0,0-0.1,0-0.1-0.1c-0.1,0-0.2-0.1-0.4-0.2l-0.2-0.2l-0.1-0.1l-42.4-47.7v7.7v1.9v33c0,2.1-0.7,3.8-2.2,5.3
		c-1.4,1.4-3.2,2.2-5.3,2.2c-2.1,0-3.9-0.7-5.3-2.2c-1.5-1.4-2.2-3.2-2.2-5.3v-33v-1.9v-27.4v-0.2V283l0.1-0.1
		c0.2-1.8,1-3.4,2.4-4.8c1.5-1.4,3.3-2,5.4-1.9c2.1,0.1,3.8,0.9,5.2,2.5l42.4,47.6V313v-1.9v-27.4c0-2.1,0.7-3.9,2.2-5.3
		C429.2,276.9,431,276.2,433.1,276.2z"/>
	<path class="st8" d="M461,276.3c2.1,0,3.9,0.7,5.3,2.2c1.5,1.4,2.2,3.2,2.2,5.3v44.4l9.6-9.6c1.8-1.9,4-3.4,6.5-4.4
		c2.5-1,5.1-1.5,7.8-1.5c5.6,0,10.3,2,14.3,5.9l9.7,9.7v-44.6c0-2.1,0.7-3.8,2.1-5.3c1.4-1.4,3.1-2.2,5.2-2.2c2.1,0,3.8,0.7,5.3,2.2
		s2.2,3.2,2.2,5.3v62.3c0,2.1-0.7,3.8-2.2,5.3s-3.2,2.2-5.3,2.2c-1.4,0-2.8-0.4-4.1-1.3l-0.1,0.1l-1-0.8L497.1,330
		c-1.4-1.3-3-1.9-4.8-1.9c-1.9,0-3.6,0.7-4.9,2l-22.1,22.2v-0.1c-1.4,0.9-2.8,1.3-4.3,1.3c-2.1,0-3.8-0.7-5.3-2.2s-2.2-3.2-2.2-5.3
		v-62.3c0-2.1,0.7-3.8,2.2-5.3C457.1,277,458.9,276.3,461,276.3z"/>
	<path class="st8" d="M618.4,315c-0.1,2.1-0.9,3.8-2.3,5.3c-1.5,1.4-3.3,2.2-5.3,2.3h-53.5c0.3,1,0.8,2,1.3,3
		c0.4,0.8,0.8,1.6,1.2,2.3c0.4,0.7,0.8,1.4,1.2,2.2c-0.4-0.6-0.8-1.3-1.1-1.9c-0.3-0.6-0.6-1.2-1-1.9c1.3,2.3,2.9,4.4,4.9,6.2
		c2,1.8,4.2,3.3,6.7,4.3c2.6,1.1,5.6,1.8,8.8,1.9h0.5c2.1,0,3.8,0.7,5.2,2.1c1.4,1.4,2.1,3.1,2.1,5.2c0,2.1-0.7,3.8-2.1,5.3
		c-1.4,1.4-3.1,2.2-5.2,2.2c-0.5,0-0.9,0-1.4,0c-0.4,0-0.9,0-1.3-0.1c-3.4-0.2-6.6-0.9-9.9-2c-3.2-1.1-6.2-2.6-8.9-4.4
		c-2.8-1.8-5.3-3.9-7.5-6.4c-2.2-2.5-4.1-5.2-5.6-8.3c-3-6-4.3-12.4-4-19c0.3-6.7,2.2-12.9,5.7-18.6c0.3-0.5,0.7-1,1-1.5
		c0.4-0.5,0.7-1,1.1-1.5c3-4,6.6-7.3,10.8-9.8c4.2-2.5,8.8-4.2,13.6-5.1c6.2-1,12.3-0.5,18.3,1.4c6,1.9,11.2,5.1,15.5,9.6
		c3.5,3.6,6.3,7.7,8.2,12.3c2,4.6,2.9,9.4,2.9,14.4v0.2V315z M567.1,294.8c-2.3,1.5-4.3,3.4-6,5.6c-1.7,2.2-3,4.6-3.8,7.1h45.2
		c-0.4-1.2-1-2.5-1.7-3.8c-1.5-2.9-3.6-5.3-6.2-7.4c-2.6-2-5.5-3.5-8.7-4.4c-3.1-0.9-6.3-1.1-9.6-0.5
		C573,291.9,569.9,293,567.1,294.8z"/>
</g>
<line class="st9" x1="541.2" y1="311.7" x2="541.2" y2="198.3"/>
<line class="st9" x1="583.3" y1="321.7" x2="583.3" y2="208.3"/>
<line class="st9" x1="618.4" y1="323.3" x2="618.4" y2="209.9"/>
</svg>
