<svg id="Capa_1" data-name="Capa 1" xmlns="http://www.w3.org/2000/svg" viewBox="0 0 235.52 235.33"><defs><style>.cls-1{fill:none;stroke:#0ebbef;stroke-linecap:round;stroke-miterlimit:10;stroke-width:22px;}.cls-2{fill:#9d9d9c;}</style></defs><title>Logo Manwë</title><path class="cls-1" d="M320.39,354.52a106.77,106.77,0,0,1-13.81-52.69c0-59.1,47.75-107,106.66-107" transform="translate(-295.58 -183.82)"/><path class="cls-1" d="M395,406.6" transform="translate(-295.58 -183.82)"/><path class="cls-1" d="M457.4,398.61a111.73,111.73,0,0,1-57.84,8.82" transform="translate(-295.58 -183.82)"/><path class="cls-1" d="M496,368.83" transform="translate(-295.58 -183.82)"/><path class="cls-1" d="M519.91,301.49a106.19,106.19,0,0,1-21.13,63.73" transform="translate(-295.58 -183.82)"/><path class="cls-1" d="M465.44,413" transform="translate(-295.58 -183.82)"/><path class="cls-1" d="M320.64,354.46l49.79-94.86c4-7.62,10.48-7.62,14.48,0l72.87,138.83" transform="translate(-295.58 -183.82)"/><path class="cls-2" d="M531.07,255.31a8.71,8.71,0,0,1-.81,4.94,6.29,6.29,0,0,1-6.61,3,6.13,6.13,0,0,1-4.9-5.41c-.25-3.06-.34-6.15-.73-9.2A56.24,56.24,0,0,0,511.15,228a60.1,60.1,0,0,0-34.24-28.37,55.88,55.88,0,0,0-17.4-2.94,7.89,7.89,0,0,1-5.24-1.46,6.15,6.15,0,0,1-2-6.7,6,6,0,0,1,5.51-4.29,64.63,64.63,0,0,1,12.95,1,73,73,0,0,1,60.33,70Z" transform="translate(-295.58 -183.82)"/><path class="cls-2" d="M506.33,255.18a7.27,7.27,0,0,1-1.59,5.47,6.2,6.2,0,0,1-6.61,1.8,6,6,0,0,1-4.19-5.29,47,47,0,0,0-1.51-10.61,36.81,36.81,0,0,0-24-24.82,41.75,41.75,0,0,0-11.69-1.86,5.6,5.6,0,0,1-4.19-2.06,5.91,5.91,0,0,1-1-6.68,6,6,0,0,1,6-3.64,48.36,48.36,0,0,1,35.55,15.71,47.56,47.56,0,0,1,12.72,27C506.07,251.86,506.17,253.52,506.33,255.18Z" transform="translate(-295.58 -183.82)"/><path class="cls-2" d="M456.08,230.14c10.83.8,19,5.87,24.47,15.28a28.27,28.27,0,0,1,3.64,14,6.22,6.22,0,1,1-12.43.19c-.3-7.22-3.64-12.48-10.18-15.61a15.75,15.75,0,0,0-6.66-1.48,6.21,6.21,0,0,1-1.09-12.36A15.35,15.35,0,0,1,456.08,230.14Z" transform="translate(-295.58 -183.82)"/><path class="cls-2" d="M437.43,265.73a11.06,11.06,0,1,1,11.09,11.07A11,11,0,0,1,437.43,265.73Z" transform="translate(-295.58 -183.82)"/><path class="cls-1" d="M399.77,406.88l52.72-99.23c4.55-8.56,11.8-8.63,16.2-.14l29.73,57.34" transform="translate(-295.58 -183.82)"/></svg>